<svg id="Capa_1" enable-background="new 0 0 512 512" height="512" viewBox="0 0 512 512" width="512" xmlns="http://www.w3.org/2000/svg"><g><path d="m0 111.958v326.697c0 7.122 5.774 12.895 12.896 12.895h486.209c7.122 0 12.896-5.773 12.896-12.895v-326.697l-236.013-14.188z" fill="#665e66"/><path d="m255.454 300.65-24.167 13.953c-5.703 3.293-12.729 3.807-18.639.904-5.023-2.467-11.207-2.326-16.308 1.024-6.979 4.584-9.396 13.957-5.515 21.35 1.303 2.482 3.14 4.486 5.29 5.952 4.541 3.097 7.482 8.19 7.893 13.671.195 2.595 1.011 5.187 2.509 7.557 4.462 7.058 13.787 9.651 21.247 5.899 5.452-2.743 8.666-8.027 9.041-13.611.441-6.57 4.4-12.397 10.102-15.69l29.08-16.789c-1.985-11.667-7.863-23.377-20.533-24.22z" fill="#dfdde2"/><path d="m452.908 222.808c-1.303-2.482-3.14-4.486-5.29-5.952-4.541-3.097-7.482-8.19-7.893-13.671-.195-2.595-1.011-5.187-2.509-7.557-4.462-7.058-13.787-9.651-21.247-5.899-5.452 2.743-8.667 8.027-9.042 13.611-.441 6.57-4.4 12.398-10.103 15.69l-7.04 4.064c0 11.045 0 22.864 10.717 29.887l11.944-6.896c5.703-3.293 12.729-3.807 18.64-.904 5.023 2.467 11.207 2.326 16.309-1.025 6.978-4.583 9.395-13.955 5.514-21.348z" fill="#c6c1c8"/><path d="m257.122 223.965-8.548-4.935c-5.703-3.293-9.662-9.12-10.103-15.69-.375-5.584-3.589-10.869-9.042-13.611-7.46-3.752-16.785-1.159-21.247 5.899-1.498 2.37-2.315 4.962-2.509 7.557-.411 5.481-3.352 10.574-7.893 13.671-2.15 1.466-3.987 3.47-5.29 5.952-3.881 7.393-1.465 16.766 5.515 21.35 5.101 3.351 11.285 3.492 16.309 1.025 5.911-2.903 12.937-2.389 18.64.904l13.741 7.934c10.427-4.685 13.279-19.066 10.427-30.056z" fill="#dfdde2"/><path d="m449.058 316.531c-5.101-3.351-11.285-3.492-16.308-1.024-5.911 2.903-12.936 2.389-18.639-.904l-22.707-13.11c-10.39-.843-14.84.546-23.023 6.913-.241.188 2.413 16.923 2.216 17.148l27.893 16.104c5.703 3.293 9.661 9.12 10.103 15.69.375 5.584 3.589 10.869 9.041 13.611 7.46 3.752 16.785 1.159 21.247-5.899 1.498-2.37 2.315-4.962 2.509-7.557.411-5.481 3.352-10.574 7.893-13.671 2.15-1.466 3.987-3.47 5.29-5.952 3.882-7.392 1.465-16.765-5.515-21.349z" fill="#c6c1c8"/><path d="m470.793 93.93v213.912c0 67.989-55.116 123.105-123.105 123.105h-347.688v7.708c0 7.122 5.774 12.895 12.896 12.895h486.209c7.122 0 12.896-5.773 12.896-12.895v-326.697z" fill="#544f57"/><path d="m401.232 263.674c0-43.463-35.745-78.578-79.442-77.549-41.731.982-75.515 35.456-75.699 77.199-.111 25.044 11.647 47.346 29.973 61.606 1.294 1.007 1.973 2.612 1.826 4.245l-3.868 42.932c-.257 2.847 1.986 5.301 4.845 5.301h20.398l8.465-4.73 7.001 4.73h17.861l6.69-4.73 8.776 4.73h20.398c2.859 0 5.101-2.453 4.845-5.301l-3.868-42.931c-.147-1.631.529-3.236 1.822-4.242 18.242-14.194 29.977-36.357 29.977-61.26z" fill="#f1f1f4"/><path d="m371.254 324.933c18.242-14.193 29.978-36.355 29.978-61.259 0-38.583-28.169-70.587-65.064-76.568 14.704 14.116 23.856 33.971 23.856 55.964 0 21.579-8.812 41.1-23.033 55.162-5.673 5.609-8.482 13.497-7.766 21.442l.7 7.772c1.421 15.769-10.999 29.357-26.831 29.357h-27.694l-1.379 15.303c-.257 2.847 1.986 5.301 4.845 5.301h20.398l8.465-4.73 7.001 4.73h17.861l6.69-4.73 8.776 4.73h20.398c2.859 0 5.101-2.453 4.845-5.301l-3.868-42.931c-.146-1.631.53-3.237 1.822-4.242z" fill="#dfdde2"/><path d="m272.434 265.025c-.503 2.113-.657 4.362-.398 6.682.985 8.811 8.113 15.927 16.926 16.897 11.598 1.276 21.413-7.771 21.413-19.111 0-1.537-.181-3.032-.521-4.465-.291-1.222-1.424-2.058-2.68-2.058h-32.061c-1.256 0-2.389.834-2.679 2.055z" fill="#665e66"/><path d="m337.538 265.025c-.503 2.113-.657 4.362-.398 6.682.985 8.811 8.113 15.927 16.926 16.897 11.598 1.276 21.413-7.771 21.413-19.111 0-1.537-.181-3.032-.521-4.465-.291-1.222-1.424-2.058-2.68-2.058h-32.061c-1.256 0-2.388.834-2.679 2.055z" fill="#665e66"/><path d="m375.478 269.493c0-1.537-.18-3.032-.521-4.465-.291-1.222-1.424-2.058-2.68-2.058h-14.829c-2.228 8.42-5.837 16.278-10.569 23.319 2.177 1.223 4.61 2.032 7.186 2.316 11.599 1.275 21.413-7.773 21.413-19.112z" fill="#544f57"/><path d="m68.468 365.207c-4.039 0-8.016-1.895-10.525-5.444-4.106-5.807-2.727-13.843 3.079-17.949l80.144-56.671-80.144-56.671c-5.807-4.106-7.186-12.142-3.079-17.949 4.106-5.807 12.142-7.186 17.949-3.079l95.014 67.185c3.413 2.413 5.443 6.333 5.443 10.514s-2.029 8.101-5.443 10.514l-95.014 67.185c-2.259 1.597-4.854 2.365-7.424 2.365z" fill="#f1f1f4"/><path d="m314.731 377.406h-15.466c0-.156.004-.313.014-.471l2.103-34.463c.26-4.26 3.925-7.513 8.183-7.241 4.259.26 7.501 3.923 7.241 8.183zm31.213-34.881c-.26-4.259-3.922-7.514-8.183-7.241-4.259.26-7.501 3.924-7.241 8.183l2.072 33.94h15.466c0-.156-.004-.313-.014-.471zm-4.029-22.26c3.018-3.018 3.018-7.909 0-10.927l-12.791-12.79c-3.017-3.017-7.909-3.017-10.927 0l-12.791 12.79c-3.018 3.017-3.018 7.909 0 10.927 3.017 3.018 7.909 3.017 10.927 0l7.327-7.327 7.327 7.327c1.509 1.509 3.486 2.263 5.463 2.263s3.957-.755 5.465-2.263z" fill="#665e66"/><g fill="#544f57"><path d="m345.944 342.525c-.26-4.259-3.922-7.514-8.183-7.241-4.259.26-7.501 3.924-7.241 8.183l2.072 33.94h15.466c0-.156-.004-.313-.014-.471z"/><path d="m336.452 322.528c1.977 0 3.955-.755 5.463-2.263 3.018-3.018 3.018-7.909 0-10.927l-7.773-7.773c-3.499 4.86-5.263 10.806-5 16.853l1.846 1.846c1.509 1.51 3.487 2.264 5.464 2.264z"/><path d="m303.095 356.803h-2.587l-1.229 20.133c-.01.158-.014.315-.014.471h15.466l1.464-23.995c-3.866 2.156-8.328 3.391-13.1 3.391z"/></g><path d="m512 73.345c0-7.122-5.774-12.895-12.896-12.895h-486.208c-7.122-.001-12.896 5.773-12.896 12.895v38.614h512z" fill="#5c90b9"/><path d="m499.104 60.449h-28.312v51.509h41.208v-38.613c0-7.122-5.774-12.896-12.896-12.896z" fill="#4a80aa"/><circle cx="30.905" cy="86.204" fill="#f1f1f4" r="7.726"/><circle cx="62.45" cy="86.204" fill="#f1f1f4" r="7.726"/><circle cx="93.996" cy="86.204" fill="#f1f1f4" r="7.726"/></g></svg>